<svg width="1054" height="603" viewBox="0 0 1054 603" fill="none" xmlns="http://www.w3.org/2000/svg">
<path d="M658.355 264.639L686.874 256.3L683.173 285.373L677.095 308.953L677.399 309.505L687.692 307.421L700.414 303.944L705.563 304.889L708.867 307.646L724.222 323.463L750.825 348L694.862 376.937L687.233 377.854L664.964 387.358L656.424 389.027L655.563 389.2L653.66 388.336L651.42 384.8L653.136 382.283L654.785 380.93L663.279 370.72L665.124 368.006L666.49 365.094L667.548 361.151L667.229 354.785L672.803 334.938L676.428 324.662L672.141 322.644L667.173 317.319L662.92 308.816L661.658 304.374L662.403 301.532L660.797 275.273L658.355 264.639Z" fill="white" fill-opacity="0.1" stroke="#273272" stroke-width="3" stroke-linejoin="bevel"/>
<path d="M902.936 420.752L874.952 469.954L844.344 495.525L793.936 454.946L741.814 413.978L765.446 408.77L774.007 408.189L777.788 407.062L808.833 393.211L818.168 385.233L819.748 378.057L837.391 368.771L902.936 420.752Z" fill="#52C055" stroke="#273272" stroke-width="3" stroke-linejoin="bevel"/>
<path d="M860.303 141.343L905.22 139.966L912.012 229.62L908.595 232.469L900.925 236.21L884.876 253.438L879.44 251.852L877.315 250.194L876.319 247.602L875.16 231.006L865.284 211.542L855.502 207.559L846.057 201.947L842.71 196.626L842.1 192.34L852.438 173.623L846.947 169.637L851.408 157.529L858.77 142.864L860.303 141.343Z" fill="white" fill-opacity="0.1" stroke="#273272" stroke-width="3" stroke-linejoin="bevel"/>
<path d="M886.281 341.333L887.836 349.985L889.574 353.246L909.781 371.516L925.587 385.687L936.739 398.526L911.21 427.217L902.934 420.753L837.39 368.772L860.546 354.356L886.281 341.333Z" fill="#52C055" stroke="#273272" stroke-width="3" stroke-linejoin="bevel"/>
<path d="M911.213 427.215L996.639 490.142L975.305 506.363L966.721 498.077L954.058 511.421L961.899 520.14L951.665 529.7L936.106 509.194L917.732 501.263L903.24 484.759L901.866 482.024L901.43 481.19L884.956 470.648L874.954 469.953L902.938 420.75L911.213 427.215Z" fill="#52C055" stroke="#273272" stroke-width="3" stroke-linejoin="bevel"/>
<path d="M391.639 158.875L429.12 154.975L466.615 188.368L448.882 249.105L423.733 246.054L423.992 224.165L420.614 205.121L391.648 205.195L391.639 158.875Z" fill="white" fill-opacity="0.1" stroke="#273272" stroke-width="3" stroke-linejoin="bevel"/>
<path d="M961.477 384.73L984.266 399.281L992.456 427.795L1007.29 440.96L1008.31 441.809L1048.08 485.826L1004.55 510.737L996.637 490.143L911.211 427.215L936.741 398.525L960.272 380.776L961.477 384.73Z" fill="#52C055" stroke="#273272" stroke-width="3" stroke-linejoin="bevel"/>
<path d="M19.275 541.163L58.2329 528.248L60.2742 528.365L79.5053 531.746L112.037 537.806L125.779 599.646L35.6535 598.191L18.135 597.809L19.275 541.163Z" fill="white" fill-opacity="0.1" stroke="#273272" stroke-width="3" stroke-linejoin="bevel"/>
<path d="M133.887 504.32L157.492 504.256L200.038 501.653L204.451 501.194L208.577 503.09L210.188 504.342L237.38 525.585L230.778 536.62L218.493 558.308L215.052 569.279L216.124 597.241L219.37 600.411L204.259 600.361L152.923 599.99L125.784 599.645L112.042 537.806L133.887 504.32Z" fill="white" fill-opacity="0.1" stroke="#273272" stroke-width="3" stroke-linejoin="bevel"/>
<path d="M49.5173 420.66L80.3474 455.239L117.629 479.4L135.281 487.749L133.884 504.318L112.039 537.804L79.5069 531.744L60.2757 528.363L58.2345 528.246L19.2766 541.161L20.2066 494.847L21.3991 438.615L21.6475 420.181L49.5173 420.66Z" fill="white" fill-opacity="0.1" stroke="#273272" stroke-width="3" stroke-linejoin="bevel"/>
<path d="M23.3239 332.356L86.6055 332.564L87.6719 374.942L88.1194 389.201L73.2956 398.581L49.5189 420.661L21.6491 420.182L22.3392 382.264L23.3239 332.356Z" fill="white" fill-opacity="0.1" stroke="#273272" stroke-width="3" stroke-linejoin="bevel"/>
<path d="M98.1876 282.32L86.606 332.564L23.3243 332.355L23.326 320.955L24.5131 268.051L70.1605 268.205L89.3312 271.814L98.1876 282.32Z" fill="white" fill-opacity="0.1" stroke="#273272" stroke-width="3" stroke-linejoin="bevel"/>
<path d="M169.571 259.449L167.949 377.164L87.6704 374.941L86.604 332.564L98.1855 282.32L115.513 258.56L168.844 258.892L169.571 259.449Z" fill="white" fill-opacity="0.1" stroke="#273272" stroke-width="3" stroke-linejoin="bevel"/>
<path d="M252.561 288.243L252.37 320.957L252.202 352.847L223.874 392.223L210.478 410.341L167.997 377.321L167.952 377.165L169.574 259.45L171.122 275.731L171.309 277.917L173.59 288.025L189.978 303.131L193.493 304.346L198.566 305.699L201.95 305.327L215.13 303.166L234.975 299.121L252.561 288.243Z" fill="white" fill-opacity="0.1" stroke="#273272" stroke-width="3" stroke-linejoin="bevel"/>
<path d="M207.24 209.152L220.729 209.218L220.883 197.588L228.195 197.587L254.491 199.01L254.029 222.204L252.557 288.24L234.971 299.118L215.126 303.163L201.946 305.324L198.562 305.696L193.489 304.343L189.974 303.128L173.586 288.022L171.305 277.914L171.118 275.728L169.57 259.447L168.844 258.891L176.864 240.061L180.84 234.576L184.953 230.347L194.113 224.415L195.951 224.44L207.019 221.046L207.24 209.152Z" fill="white" fill-opacity="0.1" stroke="#273272" stroke-width="3" stroke-linejoin="bevel"/>
<path d="M201.678 153.191L298.34 153.859L297.695 185.736L294.63 194.275L279.516 193.838L274.199 200.898L273.912 220.245L254.027 222.205L254.49 199.011L228.194 197.589L220.882 197.59L220.728 209.22L207.239 209.154L207.236 196.484L201.644 180.859L201.678 153.191Z" fill="white" fill-opacity="0.1" stroke="#273272" stroke-width="3" stroke-linejoin="bevel"/>
<path d="M201.683 153.191L201.649 180.858L207.241 196.484L207.244 209.154L207.023 221.047L195.955 224.441L194.117 224.417L184.957 230.349L180.844 234.578L176.868 240.063L168.848 258.892L115.516 258.56L116.508 183.83L123.819 178.441L146.518 157.911L184.203 154.802L184.161 153.231L201.683 153.191Z" fill="white" fill-opacity="0.1" stroke="#273272" stroke-width="3" stroke-linejoin="bevel"/>
<path d="M26.0887 182.652L116.505 183.829L115.513 258.559L98.1859 282.319L89.3296 271.813L70.1589 268.204L24.5114 268.05L24.5495 266.145L26.0887 182.652Z" fill="white" fill-opacity="0.1" stroke="#273272" stroke-width="3" stroke-linejoin="bevel"/>
<path d="M184.81 100.137L184.159 153.232L184.201 154.803L146.517 157.911L123.817 178.442L116.507 183.831L26.0903 182.653L26.1217 180.085L27.7323 98.0029L133.234 99.3732L172.657 99.5256L184.81 100.137Z" fill="white" fill-opacity="0.1" stroke="#273272" stroke-width="3" stroke-linejoin="bevel"/>
<path d="M185.541 65.1125L184.813 100.137L172.66 99.5252L133.237 99.3727L27.7355 98.0025L28.3244 68.028L61.2703 54.8564L106.137 29.7682L141.618 10.2397L160.016 1.3501L159.875 7.6128L159.605 33.8579L159.359 64.8698L182.887 65.1221L185.541 65.1125Z" fill="white" fill-opacity="0.1" stroke="#273272" stroke-width="3" stroke-linejoin="bevel"/>
<path d="M210.477 410.341L208.729 413.128L209.758 421.04L210.11 421.527L220.723 428.2L262.473 438.506L294.248 442.276L279.841 468.281L237.379 525.585L210.187 504.342L208.576 503.09L204.451 501.193L200.038 501.652L157.492 504.255L133.887 504.32L135.283 487.751L144.861 483.55L147.215 479.772L164.903 435.171L165.28 434.027L165.48 430.239L167.996 377.32L210.477 410.341Z" fill="white" fill-opacity="0.1" stroke="#273272" stroke-width="3" stroke-linejoin="bevel"/>
<path d="M252.367 320.955L324.377 322.47L324.885 365.076L294.246 442.274L262.47 438.504L220.72 428.198L210.108 421.525L209.755 421.038L208.727 413.126L210.475 410.339L223.871 392.221L252.198 352.845L252.367 320.955Z" fill="white" fill-opacity="0.1" stroke="#273272" stroke-width="3" stroke-linejoin="bevel"/>
<path d="M254.025 222.206L273.909 220.245L277.911 217.32L297.641 215.295L336.679 238.619L341.061 246.318L341.076 253.032L331.231 252.789L325.745 266.364L325.564 266.846L324.537 273.516L324.373 322.471L252.362 320.956L252.554 288.243L254.025 222.206Z" fill="white" fill-opacity="0.1" stroke="#273272" stroke-width="3" stroke-linejoin="bevel"/>
<path d="M280.387 65.7054L304.983 66.0617L305.526 76.6055L305.403 102.951L304.501 105.25L299.724 105.385L298.341 153.859L201.679 153.191L184.156 153.231L184.807 100.136L185.535 65.112L280.387 65.7054Z" fill="white" fill-opacity="0.1" stroke="#273272" stroke-width="3" stroke-linejoin="bevel"/>
<path d="M410.594 65.631L428.117 65.3886L429.12 154.974L391.64 158.874L380.451 152.427L356.789 152.904L347.619 153.593L320.539 154.124L298.34 153.858L299.723 105.384L304.5 105.249L305.402 102.95L305.525 76.6047L304.982 66.0609L312.611 66.1365L360.661 65.6467L410.594 65.631Z" fill="white" fill-opacity="0.1" stroke="#273272" stroke-width="3" stroke-linejoin="bevel"/>
<path d="M298.34 153.858L320.539 154.124L347.619 153.593L356.789 152.904L380.452 152.427L391.64 158.874L391.648 205.194L420.614 205.12L423.992 224.165L423.733 246.054L367.827 242.105L352.173 242.396L341.078 253.03L341.063 246.316L336.681 238.617L297.643 215.292L277.913 217.318L273.911 220.243L274.199 200.897L279.515 193.837L294.629 194.274L297.695 185.734L298.34 153.858Z" fill="white" fill-opacity="0.1" stroke="#273272" stroke-width="3" stroke-linejoin="bevel"/>
<path d="M423.733 246.054L448.882 249.105L458.625 263.892L455.294 291.359L454.516 296.88L449.82 310.766L448.721 311.63L438.373 313.814L428.85 319.514L426.529 321.314L399.783 357.908L399.877 358.698L402.191 362.929L404.368 364.909L324.883 365.076L324.374 322.47L324.539 273.515L325.566 266.844L325.747 266.363L331.232 252.788L341.078 253.031L352.173 242.397L367.827 242.106L423.733 246.054Z" fill="white" fill-opacity="0.1" stroke="#273272" stroke-width="3" stroke-linejoin="bevel"/>
<path d="M402.193 362.93L445.627 361.299L430.655 370.983L428.167 374.093L427.037 376.626L431.689 403.645L440.029 411.556L443.611 420.101L443.48 421.714L442.741 423.821L439.09 431.941L421.258 465.133L418.928 471.178L415.908 477.574L388.467 470.573L356.936 458.482L404.369 364.91L402.193 362.93Z" fill="white" fill-opacity="0.1" stroke="#273272" stroke-width="3" stroke-linejoin="bevel"/>
<path d="M350.563 478.96L335.911 520.417L332.663 579.218L330.914 585.869L323.424 600.523L217.699 600.435L214.404 597.214L213.323 571.549L216.818 560.397L229.294 538.351L235.998 527.134L279.116 468.881L302.434 468.953L308.077 472.624L310.654 478.217L334.127 478.972L350.563 478.96Z" fill="white" fill-opacity="0.1" stroke="#273272" stroke-width="3" stroke-linejoin="bevel"/>
<path d="M356.933 458.481L388.464 470.572L415.905 477.573L418.926 471.177L421.256 465.131L443.178 496.183L438.982 506.354L427.267 538.939L414.326 576.173L406.693 590.605L399.885 600.462L323.515 600.519L330.889 583.392L332.611 576.849L335.797 518.997L350.221 478.211L356.933 458.481Z" fill="white" fill-opacity="0.1" stroke="#273272" stroke-width="3" stroke-linejoin="bevel"/>
<path d="M458.625 263.893L476.013 250.497L531.652 277.878L537.39 282.424L539.069 288.101L551.804 307.74L581.195 301.364L615.506 287.78L605.086 300.046L592.615 319.143L577.66 334.53L522.131 362.811L517.008 366.524L475.914 372.243L445.626 361.299L402.191 362.93L399.877 358.699L399.783 357.909L426.53 321.315L428.85 319.515L438.373 313.815L448.721 311.631L449.82 310.766L454.516 296.881L455.294 291.36L458.625 263.893Z" fill="white" fill-opacity="0.1" stroke="#273272" stroke-width="3" stroke-linejoin="bevel"/>
<path d="M324.88 365.075L404.364 364.909L356.931 458.481L350.218 478.212L334.027 478.22L310.904 477.472L308.364 471.968L302.804 468.356L279.833 468.279L294.241 442.274L324.88 365.075Z" fill="white" fill-opacity="0.5" stroke="white" stroke-width="3" stroke-linejoin="bevel"/>
<path d="M445.625 361.298L475.912 372.242L517.007 366.523L522.129 362.81L519.959 367.892L506.322 387.419L499.486 396.131L496.263 401.424L494.284 405.364L482.888 437.916L490.541 447.355L492.171 448.904L496.782 449.07L508.782 447.814L510.575 445.385L519.451 472.37L491.321 520.167L480.343 510.779L453.412 503.706L443.177 496.184L421.256 465.132L439.087 431.94L442.739 423.821L443.477 421.713L443.609 420.1L440.027 411.555L431.686 403.644L427.034 376.625L428.164 374.093L430.653 370.982L445.625 361.298Z" fill="white" fill-opacity="0.1" stroke="#273272" stroke-width="3" stroke-linejoin="bevel"/>
<path d="M519.451 472.371L524.937 466.188L535.457 487.352L533.077 489.875L536.384 498.113L557.002 532.64L561.432 546.875L564.328 599.61L562.591 599.641L450.152 600.234L455.712 593.549L467.015 575.893L470.663 568.195L478.518 546.762L481.641 533.912L487.912 523.275L489.2 521.783L491.321 520.168L519.451 472.371Z" fill="white" fill-opacity="0.1" stroke="#273272" stroke-width="3" stroke-linejoin="bevel"/>
<path d="M577.66 334.529L579.009 343.897L591.442 370.468L580.697 375.209L574.491 378.3L562.378 385.363L555.672 389.87L534.838 413.373L510.575 445.385L508.783 447.814L496.782 449.07L492.172 448.904L490.542 447.355L482.889 437.916L494.285 405.363L496.263 401.424L499.486 396.131L506.322 387.419L519.959 367.892L522.13 362.81L577.66 334.529Z" fill="white" fill-opacity="0.1" stroke="#273272" stroke-width="3" stroke-linejoin="bevel"/>
<path d="M531.294 64.5869L534.265 171.873L534.724 186.87L466.615 188.369L429.12 154.976L428.117 65.39L507.051 65.0125L531.294 64.5869Z" fill="white" fill-opacity="0.1" stroke="#273272" stroke-width="3" stroke-linejoin="bevel"/>
<path d="M534.721 186.869L534.952 195.609L544.727 209.225L561.84 231.194L611.84 281.977L615.323 281.862L615.504 287.78L581.193 301.363L551.801 307.739L539.066 288.1L537.387 282.423L531.65 277.877L476.01 250.496L458.623 263.892L448.88 249.105L466.613 188.368L534.721 186.869Z" fill="white" fill-opacity="0.1" stroke="#273272" stroke-width="3" stroke-linejoin="bevel"/>
<path d="M615.325 281.863L644.31 276.993L647.195 262.537L658.356 264.639L660.797 275.274L662.404 301.532L661.659 304.374L662.921 308.817L667.174 317.32L672.141 322.644L676.429 324.663L670.787 323.297L651.639 323.664L627.679 329.051L586.649 341.015L579.009 343.898L577.66 334.53L592.614 319.143L605.085 300.046L615.505 287.78L615.325 281.863Z" fill="white" fill-opacity="0.1" stroke="#273272" stroke-width="3" stroke-linejoin="bevel"/>
<path d="M649.264 62.2661L660.169 157.18L659.035 158.94L645.433 168.084L605.149 170.109L534.266 171.871L531.295 64.5849L642.57 62.5092L649.264 62.2661Z" fill="white" fill-opacity="0.1" stroke="#273272" stroke-width="3" stroke-linejoin="bevel"/>
<path d="M660.165 157.181L670.801 158.433L682.573 201.285L710.725 224.708L718.481 227.197L736.132 230.858L703.068 259.858L686.872 256.299L658.353 264.638L647.192 262.535L644.307 276.992L615.322 281.862L611.839 281.977L561.839 231.193L544.726 209.225L534.951 195.608L534.72 186.868L534.261 171.872L605.144 170.109L645.429 168.084L659.031 158.94L660.165 157.181Z" fill="white" fill-opacity="0.1" stroke="#273272" stroke-width="3" stroke-linejoin="bevel"/>
<path d="M791.715 141.044L791.917 143.048L834.674 141.698L860.303 141.343L858.77 142.863L851.407 157.529L846.947 169.637L852.437 173.623L842.099 192.339L839.279 193.753L811.934 203.318L764.316 206.259L774.253 167.335L791.715 141.044Z" fill="white" fill-opacity="0.1" stroke="#273272" stroke-width="3" stroke-linejoin="bevel"/>
<path d="M670.807 158.433L774.258 167.334L764.321 206.258L759.832 222.517L736.138 230.858L718.487 227.197L710.732 224.708L682.579 201.285L670.807 158.433Z" fill="white" fill-opacity="0.1" stroke="#273272" stroke-width="3" stroke-linejoin="bevel"/>
<path d="M759.83 222.519L758.945 241.407L759.088 246.931L766.733 263.908L780.012 306.374L772.957 314.476L766.947 322.2L763.472 341.55L750.828 348.001L724.224 323.465L726.651 308.501L725.752 305.284L716.003 283.434L707.802 278.362L703.072 259.861L736.136 230.861L759.83 222.519Z" fill="white" fill-opacity="0.1" stroke="#273272" stroke-width="3" stroke-linejoin="bevel"/>
<path d="M676.43 324.662L672.805 334.937L667.231 354.785L667.55 361.151L666.491 365.094L665.126 368.006L663.281 370.72L654.787 380.93L653.138 382.282L652.88 380.488L652.047 379.508L634.966 373.157L623.011 370.467L615.59 373.261L591.443 370.468L579.01 343.897L586.65 341.014L627.68 329.05L651.64 323.663L670.788 323.296L676.43 324.662Z" fill="white" fill-opacity="0.1" stroke="#273272" stroke-width="3" stroke-linejoin="bevel"/>
<path d="M653.139 382.282L651.423 384.799L612.758 400.82L591.773 411.552L563.229 429.521L547.885 440.221L528.857 461.021L524.939 466.186L519.453 472.37L510.577 445.385L534.84 413.372L555.674 389.87L562.38 385.363L574.493 378.299L580.699 375.208L591.444 370.468L615.591 373.261L623.012 370.467L634.967 373.156L652.048 379.508L652.881 380.488L653.139 382.282Z" fill="white" fill-opacity="0.1" stroke="#273272" stroke-width="3" stroke-linejoin="bevel"/>
<path d="M659.039 454.985L648.15 459.699L639.994 461.182L572.855 473.211L536.943 490.583L535.458 487.35L524.938 466.186L528.855 461.021L547.883 440.221L563.227 429.521L591.771 411.551L612.756 400.82L651.421 384.799L648.114 394.949L638.304 440.976L638.317 441.806L639.833 446.571L642.167 448.396L659.039 454.985Z" fill="white" fill-opacity="0.1" stroke="#273272" stroke-width="3" stroke-linejoin="bevel"/>
<path d="M659.037 454.987L669.273 478.893L659.667 488.145L635.285 501.913L620.458 516.607L614.92 522.376L607.681 526.877L594.741 529.633L573.404 535.078L561.431 546.875L557.001 532.639L536.383 498.113L533.076 489.875L535.457 487.352L536.942 490.584L572.854 473.213L639.993 461.184L648.149 459.701L659.037 454.987Z" fill="white" fill-opacity="0.1" stroke="#273272" stroke-width="3" stroke-linejoin="bevel"/>
<path d="M620.463 516.606L622.446 517.135L628.616 520.234L641.689 529.344L651.355 547.648L651.567 550.996L650.827 562.206L646.107 572.024L645.934 572.966L646.325 598.321L607.576 599.009L564.332 599.609L561.436 546.874L573.408 535.077L594.745 529.632L607.685 526.876L614.924 522.375L620.463 516.606Z" fill="white" fill-opacity="0.1" stroke="#273272" stroke-width="3" stroke-linejoin="bevel"/>
<path d="M669.274 478.893L693.982 503.321L708.168 517.287L719.342 519.815L724.181 520.04L728.013 521.736L756.067 556.487L781.423 592.287L782.116 593.922L781.91 595.043L723.109 596.503L684.282 597.416L646.322 598.322L645.931 572.967L646.104 572.024L650.824 562.207L651.564 550.997L651.352 547.649L641.686 529.345L628.613 520.235L622.443 517.136L620.46 516.606L635.287 501.913L659.668 488.145L669.274 478.893Z" fill="#52C055" stroke="#273272" stroke-width="3" stroke-linejoin="bevel"/>
<path d="M694.864 376.938L724.719 400.417L699.971 419.873L720.585 484.996L721.228 484.709L693.983 503.321L669.275 478.893L659.039 454.987L642.168 448.398L639.834 446.573L638.317 441.808L638.305 440.978L648.114 394.951L651.422 384.801L653.662 388.338L655.565 389.202L656.426 389.029L664.966 387.359L687.235 377.856L694.864 376.938Z" fill="#52C055" stroke="#273272" stroke-width="3" stroke-linejoin="bevel"/>
<path d="M724.72 400.416L741.816 413.978L793.939 454.946L766.702 469.918L743.934 474.531L721.228 484.708L720.586 484.995L699.972 419.872L724.72 400.416Z" fill="#52C055" stroke="#273272" stroke-width="3" stroke-linejoin="bevel"/>
<path d="M793.94 454.946L844.347 495.525L832.15 502.647L824.231 539.313L823.794 545.282L823.926 549.462L825.037 556.028L820.999 568.14L816.393 577.74L813.023 583.336L800.528 594.467L783.077 595.017L781.912 595.043L782.119 593.922L781.426 592.287L756.07 556.487L728.015 521.736L724.184 520.04L719.345 519.814L708.171 517.287L693.985 503.321L721.23 484.709L743.936 474.531L766.703 469.918L793.94 454.946Z" fill="#52C055" stroke="#273272" stroke-width="3" stroke-linejoin="bevel"/>
<path d="M780.011 306.372L817.218 313.952L860.548 354.355L837.392 368.771L819.749 378.056L818.169 385.232L808.834 393.21L777.789 407.061L774.008 408.188L765.447 408.769L741.815 413.977L724.718 400.415L694.863 376.936L750.827 348L763.471 341.548L766.946 322.198L772.956 314.474L780.011 306.372Z" fill="#52C055" stroke="#273272" stroke-width="3" stroke-linejoin="bevel"/>
<path d="M817.218 313.951L863.001 290.189L861.657 285.291L855.929 278.595L856.016 273.628L856.454 271.649L857.143 270.709L868.415 261.413L869.212 260.989L873.578 260.282L876.735 262.939L881.85 265.863L904.525 293.725L892.11 304.227L909.783 334.149L886.284 341.331L860.548 354.354L817.218 313.951Z" fill="white" fill-opacity="0.1" stroke="#273272" stroke-width="3" stroke-linejoin="bevel"/>
<path d="M764.318 206.26L811.935 203.319L839.281 193.754L842.101 192.341L842.711 196.626L846.058 201.948L855.504 207.56L865.286 211.543L875.162 231.007L876.32 247.603L877.316 250.194L879.442 251.853L884.877 253.439L876.735 262.941L873.578 260.284L869.211 260.991L868.415 261.415L857.143 270.711L856.454 271.651L856.015 273.63L855.929 278.597L861.656 285.293L863.001 290.191L817.218 313.953L780.011 306.374L766.732 263.908L759.087 246.931L758.945 241.407L759.829 222.519L764.318 206.26Z" fill="white" fill-opacity="0.1" stroke="#273272" stroke-width="3" stroke-linejoin="bevel"/>
<path d="M713.041 61.2791L784.11 59.8082L791.717 141.044L774.255 167.334L670.804 158.434L660.168 157.181L649.263 62.2671L713.041 61.2791Z" fill="white" fill-opacity="0.1" stroke="#273272" stroke-width="3" stroke-linejoin="bevel"/>
<path d="M791.18 59.6164L898.74 56.2156L905.221 139.966L860.304 141.343L834.675 141.698L791.918 143.049L791.716 141.044L784.109 59.8087L791.18 59.6164Z" fill="white" fill-opacity="0.1" stroke="#273272" stroke-width="3" stroke-linejoin="bevel"/>
<path d="M898.743 56.2149L920.123 55.4297L923.213 56.7505L932.021 65.7213L934.536 69.1616L937.802 81.6208L958.206 88.931L976.487 142.833L956.972 178.364L934.207 212.839L926.531 233.698L900.928 236.21L908.598 232.468L912.015 229.62L905.223 139.965L898.743 56.2149Z" fill="white" fill-opacity="0.1" stroke="#273272" stroke-width="3" stroke-linejoin="bevel"/>
<path d="M976.483 142.833L979.142 154.188L985.19 162.745L989.495 168.665L1006.04 181.501L1008.77 183.416L1022.41 185.164L1030.1 185.711L1041.3 201.557L1029.82 206.99L1024.05 211.319L1018.4 218.981L1017.06 221.382L1013.33 229.893L1012.43 232.964L1013.01 233.824L1012.64 237.654L1010.33 244.365L1003.54 254.648L994.927 262.998L991.99 265.842L985.553 268.394L962.497 253.389L966.808 229.099L926.528 233.699L934.204 212.839L956.968 178.364L976.483 142.833Z" fill="white" fill-opacity="0.1" stroke="#273272" stroke-width="3" stroke-linejoin="bevel"/>
<path d="M926.527 233.699L966.807 229.099L962.496 253.389L985.552 268.394L991.99 265.842L994.927 262.997L995.669 264.366L970.534 295.813L909.78 334.15L892.108 304.227L904.523 293.725L881.848 265.864L876.732 262.94L884.875 253.437L900.924 236.21L926.527 233.699Z" fill="white" fill-opacity="0.1" stroke="#273272" stroke-width="3" stroke-linejoin="bevel"/>
<path d="M970.533 295.814L983.3 317.978L983.621 319.435L983.282 320.77L974.255 337.373L969.85 341.585L967.184 341.464L964.664 340.744L963.241 340.869L959.057 347.181L958.288 361.346L959.512 378.487L960.269 380.777L936.738 398.526L925.586 385.687L909.78 371.515L889.573 353.245L887.835 349.984L886.28 341.333L909.779 334.151L970.533 295.814Z" fill="white" fill-opacity="0.1" stroke="#273272" stroke-width="3" stroke-linejoin="bevel"/>
<path d="M936.106 509.195L951.665 529.701L964.291 555.223L928.435 571.593L895.961 564.422L936.106 509.195Z" fill="#52C055" stroke="#273272" stroke-width="3" stroke-linejoin="bevel"/>
<path d="M874.952 469.953L884.954 470.648L901.428 481.191L901.864 482.025L903.238 484.759L917.73 501.264L936.104 509.194L895.959 564.422L862.464 592.663L800.524 594.466L813.019 583.335L816.39 577.738L820.995 568.139L825.033 556.027L823.922 549.461L823.79 545.281L824.227 539.311L832.146 502.646L844.343 495.524L874.952 469.953Z" fill="#52C055" stroke="#273272" stroke-width="3" stroke-linejoin="bevel"/>
<path d="M1004.56 510.738L990.508 524.819L972.956 546.699L964.294 555.223L951.668 529.702L961.902 520.142L954.061 511.422L966.724 498.078L975.308 506.365L996.641 490.143L1004.56 510.738Z" fill="#52C055" stroke="#273272" stroke-width="3" stroke-linejoin="bevel"/>
<path d="M443.18 496.185L453.415 503.708L480.346 510.781L491.324 520.168L489.203 521.783L487.915 523.275L481.644 533.912L478.521 546.762L470.666 568.195L467.018 575.893L455.715 593.55L450.155 600.234L406.631 600.451L399.888 600.464L406.696 590.607L414.328 576.175L427.269 538.942L438.985 506.356L443.18 496.185Z" fill="white" fill-opacity="0.1" stroke="#273272" stroke-width="3" stroke-linejoin="bevel"/>
<path d="M686.875 256.3L703.071 259.86L707.801 278.361L716.002 283.433L725.751 305.282L726.65 308.5L724.223 323.464L708.868 307.647L705.564 304.889L700.415 303.945L687.693 307.421L677.4 309.505L677.096 308.953L683.174 285.373L686.875 256.3Z" fill="white" fill-opacity="0.1" stroke="#273272" stroke-width="3" stroke-linejoin="bevel"/>
<path d="M167.949 377.165L167.994 377.32L165.479 430.239L165.278 434.026L164.901 435.171L147.214 479.771L144.86 483.55L135.282 487.751L117.629 479.401L80.3482 455.241L49.5181 420.661L73.2948 398.581L88.1187 389.201L87.6711 374.942L167.949 377.165Z" fill="white" fill-opacity="0.1" stroke="#273272" stroke-width="3" stroke-linejoin="bevel"/>
<g filter="url(#filter0_d_2478_3703)">
<rect x="341" y="467.478" width="102" height="42" rx="8" fill="white" shape-rendering="crispEdges"/>
<path d="M351.63 488.178C351.63 486.942 351.906 485.838 352.458 484.866C353.022 483.882 353.784 483.12 354.744 482.58C355.716 482.028 356.802 481.752 358.002 481.752C359.406 481.752 360.636 482.112 361.692 482.832C362.748 483.552 363.486 484.548 363.906 485.82H361.008C360.72 485.22 360.312 484.77 359.784 484.47C359.268 484.17 358.668 484.02 357.984 484.02C357.252 484.02 356.598 484.194 356.022 484.542C355.458 484.878 355.014 485.358 354.69 485.982C354.378 486.606 354.222 487.338 354.222 488.178C354.222 489.006 354.378 489.738 354.69 490.374C355.014 490.998 355.458 491.484 356.022 491.832C356.598 492.168 357.252 492.336 357.984 492.336C358.668 492.336 359.268 492.186 359.784 491.886C360.312 491.574 360.72 491.118 361.008 490.518H363.906C363.486 491.802 362.748 492.804 361.692 493.524C360.648 494.232 359.418 494.586 358.002 494.586C356.802 494.586 355.716 494.316 354.744 493.776C353.784 493.224 353.022 492.462 352.458 491.49C351.906 490.518 351.63 489.414 351.63 488.178ZM365.41 489.456C365.41 488.448 365.608 487.554 366.004 486.774C366.412 485.994 366.958 485.394 367.642 484.974C368.338 484.554 369.112 484.344 369.964 484.344C370.708 484.344 371.356 484.494 371.908 484.794C372.472 485.094 372.922 485.472 373.258 485.928V484.506H375.796V494.478H373.258V493.02C372.934 493.488 372.484 493.878 371.908 494.19C371.344 494.49 370.69 494.64 369.946 494.64C369.106 494.64 368.338 494.424 367.642 493.992C366.958 493.56 366.412 492.954 366.004 492.174C365.608 491.382 365.41 490.476 365.41 489.456ZM373.258 489.492C373.258 488.88 373.138 488.358 372.898 487.926C372.658 487.482 372.334 487.146 371.926 486.918C371.518 486.678 371.08 486.558 370.612 486.558C370.144 486.558 369.712 486.672 369.316 486.9C368.92 487.128 368.596 487.464 368.344 487.908C368.104 488.34 367.984 488.856 367.984 489.456C367.984 490.056 368.104 490.584 368.344 491.04C368.596 491.484 368.92 491.826 369.316 492.066C369.724 492.306 370.156 492.426 370.612 492.426C371.08 492.426 371.518 492.312 371.926 492.084C372.334 491.844 372.658 491.508 372.898 491.076C373.138 490.632 373.258 490.104 373.258 489.492ZM390.642 484.362C391.866 484.362 392.85 484.74 393.594 485.496C394.35 486.24 394.728 487.284 394.728 488.628V494.478H392.208V488.97C392.208 488.19 392.01 487.596 391.614 487.188C391.218 486.768 390.678 486.558 389.994 486.558C389.31 486.558 388.764 486.768 388.356 487.188C387.96 487.596 387.762 488.19 387.762 488.97V494.478H385.242V488.97C385.242 488.19 385.044 487.596 384.648 487.188C384.252 486.768 383.712 486.558 383.028 486.558C382.332 486.558 381.78 486.768 381.372 487.188C380.976 487.596 380.778 488.19 380.778 488.97V494.478H378.258V484.506H380.778V485.712C381.102 485.292 381.516 484.962 382.02 484.722C382.536 484.482 383.1 484.362 383.712 484.362C384.492 484.362 385.188 484.53 385.8 484.866C386.412 485.19 386.886 485.658 387.222 486.27C387.546 485.694 388.014 485.232 388.626 484.884C389.25 484.536 389.922 484.362 390.642 484.362ZM399.639 485.964C399.963 485.484 400.407 485.094 400.971 484.794C401.547 484.494 402.201 484.344 402.933 484.344C403.785 484.344 404.553 484.554 405.237 484.974C405.933 485.394 406.479 485.994 406.875 486.774C407.283 487.542 407.487 488.436 407.487 489.456C407.487 490.476 407.283 491.382 406.875 492.174C406.479 492.954 405.933 493.56 405.237 493.992C404.553 494.424 403.785 494.64 402.933 494.64C402.189 494.64 401.535 494.496 400.971 494.208C400.419 493.908 399.975 493.524 399.639 493.056V494.478H397.119V481.158H399.639V485.964ZM404.913 489.456C404.913 488.856 404.787 488.34 404.535 487.908C404.295 487.464 403.971 487.128 403.563 486.9C403.167 486.672 402.735 486.558 402.267 486.558C401.811 486.558 401.379 486.678 400.971 486.918C400.575 487.146 400.251 487.482 399.999 487.926C399.759 488.37 399.639 488.892 399.639 489.492C399.639 490.092 399.759 490.614 399.999 491.058C400.251 491.502 400.575 491.844 400.971 492.084C401.379 492.312 401.811 492.426 402.267 492.426C402.735 492.426 403.167 492.306 403.563 492.066C403.971 491.826 404.295 491.484 404.535 491.04C404.787 490.596 404.913 490.068 404.913 489.456ZM411.838 486.054C412.162 485.526 412.582 485.112 413.098 484.812C413.626 484.512 414.226 484.362 414.898 484.362V487.008H414.232C413.44 487.008 412.84 487.194 412.432 487.566C412.036 487.938 411.838 488.586 411.838 489.51V494.478H409.318V484.506H411.838V486.054ZM417.874 483.318C417.43 483.318 417.058 483.18 416.758 482.904C416.47 482.616 416.326 482.262 416.326 481.842C416.326 481.422 416.47 481.074 416.758 480.798C417.058 480.51 417.43 480.366 417.874 480.366C418.318 480.366 418.684 480.51 418.972 480.798C419.272 481.074 419.422 481.422 419.422 481.842C419.422 482.262 419.272 482.616 418.972 482.904C418.684 483.18 418.318 483.318 417.874 483.318ZM419.116 484.506V494.478H416.596V484.506H419.116ZM420.957 489.456C420.957 488.448 421.155 487.554 421.551 486.774C421.959 485.994 422.505 485.394 423.189 484.974C423.885 484.554 424.659 484.344 425.511 484.344C426.255 484.344 426.903 484.494 427.455 484.794C428.019 485.094 428.469 485.472 428.805 485.928V484.506H431.343V494.478H428.805V493.02C428.481 493.488 428.031 493.878 427.455 494.19C426.891 494.49 426.237 494.64 425.493 494.64C424.653 494.64 423.885 494.424 423.189 493.992C422.505 493.56 421.959 492.954 421.551 492.174C421.155 491.382 420.957 490.476 420.957 489.456ZM428.805 489.492C428.805 488.88 428.685 488.358 428.445 487.926C428.205 487.482 427.881 487.146 427.473 486.918C427.065 486.678 426.627 486.558 426.159 486.558C425.691 486.558 425.259 486.672 424.863 486.9C424.467 487.128 424.143 487.464 423.891 487.908C423.651 488.34 423.531 488.856 423.531 489.456C423.531 490.056 423.651 490.584 423.891 491.04C424.143 491.484 424.467 491.826 424.863 492.066C425.271 492.306 425.703 492.426 426.159 492.426C426.627 492.426 427.065 492.312 427.473 492.084C427.881 491.844 428.205 491.508 428.445 491.076C428.685 490.632 428.805 490.104 428.805 489.492Z" fill="#14317F"/>
</g>
<mask id="mask0_2478_3703" style="mask-type:luminance" maskUnits="userSpaceOnUse" x="929" y="475" width="46" height="48">
<path d="M929.275 475.681H975V522.059H929.275V475.681Z" fill="white"/>
</mask>
<g mask="url(#mask0_2478_3703)">
<path d="M952.074 516.889C954.788 512.174 958.441 508.743 961.38 505.496C964.691 501.836 967.149 498.374 967.149 493.325C967.149 484.862 960.377 478.008 952.075 478.008C943.774 478.008 937 484.862 937 493.325C937 498.374 939.458 501.836 942.77 505.496C945.708 508.743 949.361 512.175 952.074 516.889Z" fill="white" stroke="white" stroke-width="2" stroke-miterlimit="10"/>
<path d="M952 499.965C956.134 499.965 959.5 496.598 959.5 492.459C959.5 488.321 956.134 484.954 952 484.954C947.866 484.954 944.5 488.321 944.5 492.459C944.5 496.598 947.866 499.965 952 499.965Z" stroke="#3883D0" stroke-width="2" stroke-miterlimit="10"/>
<path d="M952 495.962C953.928 495.962 955.5 494.391 955.5 492.459C955.5 490.528 953.929 488.957 952 488.957C950.071 488.957 948.5 490.528 948.5 492.459C948.5 494.391 950.072 495.962 952 495.962Z" fill="#3883D0" stroke="#3883D0" stroke-width="2" stroke-miterlimit="10"/>
</g>
<mask id="mask1_2478_3703" style="mask-type:luminance" maskUnits="userSpaceOnUse" x="859" y="397" width="46" height="48">
<path d="M859.275 397.681H905V444.059H859.275V397.681Z" fill="white"/>
</mask>
<g mask="url(#mask1_2478_3703)">
<path d="M882.074 438.889C884.788 434.174 888.441 430.743 891.38 427.496C894.691 423.836 897.149 420.374 897.149 415.325C897.149 406.862 890.377 400.008 882.075 400.008C873.774 400.008 867 406.862 867 415.325C867 420.374 869.458 423.836 872.77 427.496C875.708 430.743 879.361 434.175 882.074 438.889Z" fill="white" stroke="white" stroke-width="2" stroke-miterlimit="10"/>
<path d="M882 421.965C886.134 421.965 889.5 418.598 889.5 414.459C889.5 410.321 886.134 406.954 882 406.954C877.866 406.954 874.5 410.321 874.5 414.459C874.5 418.598 877.866 421.965 882 421.965Z" stroke="#3883D0" stroke-width="2" stroke-miterlimit="10"/>
<path d="M882 417.962C883.928 417.962 885.5 416.391 885.5 414.459C885.5 412.528 883.929 410.957 882 410.957C880.071 410.957 878.5 412.528 878.5 414.459C878.5 416.391 880.072 417.962 882 417.962Z" fill="#3883D0" stroke="#3883D0" stroke-width="2" stroke-miterlimit="10"/>
</g>
<mask id="mask2_2478_3703" style="mask-type:luminance" maskUnits="userSpaceOnUse" x="794" y="488" width="46" height="48">
<path d="M794.275 488.681H840V535.059H794.275V488.681Z" fill="white"/>
</mask>
<g mask="url(#mask2_2478_3703)">
<path d="M817.074 529.889C819.788 525.174 823.441 521.743 826.38 518.496C829.691 514.836 832.149 511.374 832.149 506.325C832.149 497.862 825.377 491.008 817.075 491.008C808.774 491.008 802 497.862 802 506.325C802 511.374 804.458 514.836 807.77 518.496C810.708 521.743 814.361 525.175 817.074 529.889Z" fill="white" stroke="white" stroke-width="2" stroke-miterlimit="10"/>
<path d="M817 512.965C821.134 512.965 824.5 509.598 824.5 505.459C824.5 501.321 821.134 497.954 817 497.954C812.866 497.954 809.5 501.321 809.5 505.459C809.5 509.598 812.866 512.965 817 512.965Z" stroke="#3883D0" stroke-width="2" stroke-miterlimit="10"/>
<path d="M817 508.962C818.928 508.962 820.5 507.391 820.5 505.459C820.5 503.528 818.929 501.957 817 501.957C815.071 501.957 813.5 503.528 813.5 505.459C813.5 507.391 815.072 508.962 817 508.962Z" fill="#3883D0" stroke="#3883D0" stroke-width="2" stroke-miterlimit="10"/>
</g>
<mask id="mask3_2478_3703" style="mask-type:luminance" maskUnits="userSpaceOnUse" x="972" y="470" width="46" height="48">
<path d="M972.275 470.681H1018V517.059H972.275V470.681Z" fill="white"/>
</mask>
<g mask="url(#mask3_2478_3703)">
<path d="M995.132 511.89C997.845 507.178 1001.5 503.75 1004.44 500.504C1007.75 496.847 1010.21 493.388 1010.21 488.342C1010.21 479.887 1003.43 473.038 995.133 473.038C986.831 473.038 980.058 479.886 980.058 488.342C980.058 493.388 982.516 496.847 985.827 500.504C988.765 503.75 992.418 507.179 995.132 511.89Z" fill="white" stroke="white" stroke-width="2" stroke-miterlimit="10"/>
<path d="M995.096 495.498C998.955 495.498 1002.1 492.357 1002.1 488.498C1002.1 484.638 998.955 481.498 995.096 481.498C991.237 481.498 988.096 484.638 988.096 488.498C988.096 492.357 991.237 495.498 995.096 495.498Z" stroke="#3883D0" stroke-width="2" stroke-miterlimit="10"/>
</g>
<mask id="mask4_2478_3703" style="mask-type:luminance" maskUnits="userSpaceOnUse" x="965" y="473" width="46" height="48">
<path d="M965 473.978H1010.72V520.358H965V473.978Z" fill="white"/>
</mask>
<g mask="url(#mask4_2478_3703)">
<mask id="path-86-outside-1_2478_3703" maskUnits="userSpaceOnUse" x="968.705" y="474.727" width="36" height="49" fill="black">
<rect fill="white" x="968.705" y="474.727" width="36" height="49"/>
<path d="M986.705 518.727C992.038 507.85 1002.7 503.921 1002.71 493.043C1002.71 484.042 995.532 476.727 986.705 476.727C977.878 476.727 970.705 484.042 970.705 493.043C970.705 503.921 981.372 507.85 986.705 518.727Z"/>
</mask>
<path d="M986.705 518.727C992.038 507.85 1002.7 503.921 1002.71 493.043C1002.71 484.042 995.532 476.727 986.705 476.727C977.878 476.727 970.705 484.042 970.705 493.043C970.705 503.921 981.372 507.85 986.705 518.727Z" fill="white"/>
<path d="M986.705 518.727L988.501 519.608L986.705 523.27L984.909 519.608L986.705 518.727ZM1002.71 493.043H1004.71V493.043L1002.71 493.043ZM986.705 476.727L986.705 474.727H986.705V476.727ZM970.705 493.043L968.705 493.043V493.043H970.705ZM986.705 518.727L984.909 517.847C987.736 512.082 992.031 508.087 995.219 504.547C998.476 500.93 1000.7 497.707 1000.71 493.043L1002.71 493.043L1004.71 493.043C1004.7 499.257 1001.6 503.438 998.191 507.224C994.713 511.086 991.008 514.495 988.501 519.608L986.705 518.727ZM1002.71 493.043H1000.71C1000.71 485.11 994.391 478.727 986.705 478.727V476.727V474.727C996.673 474.727 1004.71 482.975 1004.71 493.043H1002.71ZM986.705 476.727L986.705 478.727C979.02 478.727 972.705 485.11 972.705 493.043H970.705H968.705C968.705 482.975 976.737 474.727 986.705 474.727L986.705 476.727ZM970.705 493.043L972.705 493.043C972.705 497.707 974.934 500.93 978.191 504.547C981.38 508.087 985.674 512.082 988.501 517.847L986.705 518.727L984.909 519.608C982.402 514.495 978.697 511.086 975.219 507.224C971.81 503.438 968.705 499.257 968.705 493.043L970.705 493.043Z" fill="#52C055" mask="url(#path-86-outside-1_2478_3703)"/>
</g>
<path d="M987 499.978C991.135 499.978 994.5 496.613 994.5 492.478C994.5 488.343 991.135 484.978 987 484.978C982.865 484.978 979.5 488.343 979.5 492.478C979.5 496.613 982.865 499.978 987 499.978Z" stroke="#3883D0" stroke-width="2" stroke-miterlimit="10"/>
<path d="M987 495.978C988.929 495.978 990.5 494.407 990.5 492.478C990.5 490.549 988.929 488.978 987 488.978C985.071 488.978 983.5 490.549 983.5 492.478C983.5 494.407 985.071 495.978 987 495.978Z" fill="#3883D0" stroke="#3883D0" stroke-width="2" stroke-miterlimit="10"/>
<mask id="mask5_2478_3703" style="mask-type:luminance" maskUnits="userSpaceOnUse" x="807" y="446" width="46" height="47">
<path d="M807.275 446.181H853V492.559H807.275V446.181Z" fill="white"/>
</mask>
<g mask="url(#mask5_2478_3703)">
<path d="M830.074 487.389C832.788 482.674 836.441 479.243 839.38 475.996C842.691 472.336 845.149 468.874 845.149 463.825C845.149 455.362 838.377 448.508 830.075 448.508C821.774 448.508 815 455.362 815 463.825C815 468.874 817.458 472.336 820.77 475.996C823.708 479.243 827.361 482.675 830.074 487.389Z" fill="white" stroke="white" stroke-width="2" stroke-miterlimit="10"/>
<path d="M830 470.465C834.134 470.465 837.5 467.098 837.5 462.959C837.5 458.821 834.134 455.454 830 455.454C825.866 455.454 822.5 458.821 822.5 462.959C822.5 467.098 825.866 470.465 830 470.465Z" stroke="#3883D0" stroke-width="2" stroke-miterlimit="10"/>
<path d="M830 466.462C831.928 466.462 833.5 464.891 833.5 462.959C833.5 461.028 831.929 459.457 830 459.457C828.071 459.457 826.5 461.028 826.5 462.959C826.5 464.891 828.072 466.462 830 466.462Z" fill="#3883D0" stroke="#3883D0" stroke-width="2" stroke-miterlimit="10"/>
</g>
<defs>
<filter id="filter0_d_2478_3703" x="337" y="467.478" width="110" height="50" filterUnits="userSpaceOnUse" color-interpolation-filters="sRGB">
<feFlood flood-opacity="0" result="BackgroundImageFix"/>
<feColorMatrix in="SourceAlpha" type="matrix" values="0 0 0 0 0 0 0 0 0 0 0 0 0 0 0 0 0 0 127 0" result="hardAlpha"/>
<feOffset dy="4"/>
<feGaussianBlur stdDeviation="2"/>
<feComposite in2="hardAlpha" operator="out"/>
<feColorMatrix type="matrix" values="0 0 0 0 0.152941 0 0 0 0 0.196078 0 0 0 0 0.447059 0 0 0 1 0"/>
<feBlend mode="normal" in2="BackgroundImageFix" result="effect1_dropShadow_2478_3703"/>
<feBlend mode="normal" in="SourceGraphic" in2="effect1_dropShadow_2478_3703" result="shape"/>
</filter>
</defs>
</svg>
